<svg id="Capa_1" enable-background="new 0 0 512 512" height="512" viewBox="0 0 512 512" width="512" xmlns="http://www.w3.org/2000/svg"><g><g><path d="m459.747 328.661c32.78-23.686 49.963-54.935 38.798-72.793-12.16-19.449-53.326-15.642-91.947 8.504-8.093 5.06-15.484 11.41-21.967 17.927-30.419-30.507-87.788-54.153-147.551-64.167 31.29 2.461 53.567 6.212 53.567 6.212s-.929-42.613-65.789-44.929c-71.08-2.539-140.234 51.476-140.234 51.476 1.41-.565 2.851-1.104 4.306-1.631-44.17 20.214-64.368 57.162-64.368 99.401 0 63.928 46.251 115.752 151.891 115.752 78.417 0 167.501-28.561 208.214-69.427 6.499 6.552 13.895 12.939 21.931 17.963 38.621 24.146 79.788 27.953 91.947 8.504 11.165-17.857-6.018-49.106-38.798-72.792z" fill="#e8a284"/><path d="m107.973 226.476c-71.975 13.432-83.411 48.864-83.411 102.185s10.155 92.043 82.13 105.476c11.078-20.51 19.437-42.449 23.052-66.887l-10.245-40.443 11.526-37.721c-7.737-30.257-15.424-51.592-23.052-62.61z" fill="#efc5b4"/><path d="m275.62 430.634h-36.08c37.426-64.967 34.504-132.692 0-209.948h36.081c31.325 71.342 31.325 141.325-.001 209.948z" fill="#fff"/><path d="m344.044 400.128-28.147 10.122c26.005-45.141 24.814-112.443.839-166.123l27.308 10.122c21.766 49.571 21.766 98.197 0 145.879z" fill="#fff"/><path d="m176.453 212.909c-4.887 0-9.646.113-14.28.33 83.308 4.014 175.495 44.745 175.495 94.408 0 52.323-102.328 94.738-188.79 94.738-80.883 0-119.226-37.12-123.837-84.745-.316 3.628-.479 7.303-.479 11.02 0 63.929 46.251 115.753 151.891 115.753s230.665-51.824 230.665-115.753c.001-63.927-125.025-115.751-230.665-115.751z" fill="#d57b84"/><path d="m316.736 244.127c5.396 12.083 9.627 24.858 12.665 37.914 5.31 8.145 8.267 16.732 8.267 25.606 0 5.072-.972 10.049-2.788 14.906 1.258 31.951-4.82 63.112-18.983 87.698l28.147-10.122c21.766-47.682 21.766-96.309 0-145.879z" fill="#e1bdfc"/><path d="m296.175 363.55c-10.62 6.619-22.806 12.585-35.996 17.743-4.45 16.69-11.284 33.102-20.639 49.341h36.081c10.142-22.218 16.979-44.581 20.554-67.084z" fill="#e1bdfc"/><path d="m239.54 220.686c1.064 2.382 2.097 4.755 3.101 7.119 15.372 4.885 29.821 10.834 42.593 17.638-2.039-6.019-4.285-12.047-6.774-18.086-9.045-2.532-18.291-4.766-27.646-6.671z" fill="#e1bdfc"/><path d="m101.234 433.038c1.782.382 3.595.751 5.458 1.099 5.763-10.67 10.781-21.733 14.787-33.327-62.231-7.529-92.383-41.284-96.439-83.169-.316 3.628-.479 7.303-.479 11.021.001 45.98 23.93 85.699 76.673 104.376z" fill="#d994b3"/><g fill="#efc5b4"><path d="m231.441 294.325c-6.449-10.315-28.281-8.296-48.763 4.51-34.257 22.477-34.344 45.612 0 68.19 20.482 12.805 42.314 14.825 48.763 4.51 5.921-9.471 5.921-67.74 0-77.21z"/><path d="m336.326 97.313 8.263 23.233c.354.995 1.054 1.783 1.938 2.181l20.642 9.3c2.916 1.314 2.916 5.96 0 7.274l-20.642 9.3c-.884.398-1.584 1.186-1.938 2.181l-8.263 23.234c-1.167 3.282-5.296 3.282-6.463 0l-8.263-23.234c-.354-.995-1.054-1.783-1.938-2.181l-20.642-9.3c-2.916-1.314-2.916-5.96 0-7.274l20.642-9.3c.884-.398 1.584-1.187 1.938-2.181l8.263-23.233c1.167-3.282 5.296-3.282 6.463 0z"/><path d="m256.235 59.354 6.129 17.234c.262.738.782 1.323 1.438 1.618l15.312 6.898c2.163.975 2.163 4.421 0 5.396l-15.312 6.898c-.656.295-1.175.88-1.438 1.618l-6.129 17.234c-.866 2.435-3.928 2.435-4.794 0l-6.129-17.234c-.262-.738-.782-1.323-1.438-1.618l-15.312-6.898c-2.163-.975-2.163-4.421 0-5.396l15.312-6.898c.656-.296 1.175-.88 1.438-1.618l6.129-17.234c.865-2.435 3.928-2.435 4.794 0z"/></g><ellipse cx="59.318" cy="157.098" fill="#e8a284" rx="18.042" ry="18.042" transform="matrix(.23 -.973 .973 .23 -107.206 178.735)"/><circle cx="180.241" cy="87.339" fill="#e8a284" r="7.783"/></g><g><g fill="#3c122c"><path d="m118.814 412.191c-.983 0-1.98-.241-2.902-.748-2.921-1.606-3.987-5.275-2.382-8.196 12.116-22.042 12.047-45.991-.214-73.214-.81-1.798-.69-3.878.32-5.571 14.499-24.295 14.525-47.215.081-70.07-1.781-2.818-.941-6.546 1.877-8.326 2.817-1.782 6.545-.941 8.326 1.877 16.331 25.839 16.882 52.734 1.65 79.989 12.464 29.399 11.977 56.681-1.463 81.129-1.098 2-3.163 3.13-5.293 3.13z"/><path d="m476.022 328.661c12.332-10.522 22.234-22.243 28.461-33.816 9.036-16.793 9.956-32.53 2.591-44.31-8-12.796-24.163-18.757-45.506-16.78-18.901 1.748-40.317 9.592-60.302 22.087-5.951 3.721-11.52 8.059-16.654 12.632-12.792-11.107-29.194-21.467-48.925-30.763-11.006-5.186-22.762-9.867-34.998-14.003-.128-2.669-1.224-14.738-10.613-27.058-8.925-11.711-27.423-25.952-64.858-27.288-73.904-2.645-143.844 51.304-146.786 53.602-.17.133-.324.277-.483.418-8.617 4.513-16.475 9.764-23.552 15.749-22.716 19.213-36.106 45.159-39.197 75.629l-2.959-.657c-5.424-1.206-10.797 2.216-12 7.639-1.204 5.423 2.216 10.796 7.639 12l6.777 1.505c.014.301.033.6.05.901l-6.827 1.516c-5.423 1.204-8.844 6.577-7.639 12 1.041 4.689 5.198 7.88 9.81 7.88.722 0 1.455-.078 2.19-.241l5.092-1.131c5.263 24.612 17.811 45.735 37.064 62.019 28.466 24.075 69.532 36.282 122.056 36.282 53.373 0 112.901-13.033 159.235-34.863 19.741-9.3 36.149-19.666 48.944-30.78 5.139 4.595 10.708 8.944 16.634 12.649 19.986 12.495 41.401 20.34 60.303 22.088 2.68.247 5.276.37 7.787.37 17.486-.001 30.725-5.962 37.72-17.151 7.364-11.78 6.445-27.516-2.591-44.31-6.228-11.572-16.131-23.293-28.463-33.815zm-78.961 0c0 18.996-14.385 38.683-40.382 56.181 12.661-37.238 13.379-74.361 2.154-110.879 24.628 17.124 38.228 36.236 38.228 54.698zm-88.611-77.364c26.854 51.726 26.844 104.87-.029 157.954-.033.066-.059.134-.089.201-7.281 2.835-14.801 5.456-22.496 7.849 23.817-59.406 24.499-118.675 2.014-176.653 6.382 2.026 12.636 4.211 18.731 6.543.491 1.435 1.248 2.91 1.869 4.106zm-59.478 175.449c28.719-66.085 27.726-132.154-2.972-196.761 9.105 1.784 18.137 3.887 26.997 6.295 26.117 60.661 25.44 122.921-2.054 185.309-7.233 1.922-14.573 3.647-21.971 5.157zm-24.472-237.279c37.926 1.354 50.22 17.572 54.199 27.537-33.352-9.093-68.993-14.154-102.246-14.154-7.841 0-15.42.278-22.746.821 21.346-8.574 46.071-15.098 70.793-14.204zm-157.112 213.363c-21.436-18.13-32.767-43.777-32.767-74.169s11.331-56.04 32.767-74.169c24.385-20.624 62.099-31.525 109.065-31.525 17.82 0 36.356 1.537 54.808 4.422 34.07 66.196 35.158 134.116 3.265 202.023-19.527 3.224-39.202 4.942-58.073 4.942-46.966.001-84.679-10.901-109.065-31.524zm259.726-1.419c-.717.337-1.446.667-2.169 1 21.561-49.788 21.006-99.565-1.664-148.267 1.287.582 2.566 1.17 3.833 1.767 5.401 2.545 10.516 5.172 15.345 7.869 17.029 42.997 16.173 87.028-2.561 131.166-4.069 2.206-8.326 4.365-12.784 6.465zm162.902-5.289c-3.707 5.932-13.403 8.633-26.595 7.413-15.832-1.464-34.118-8.252-51.491-19.114-4.607-2.88-9.004-6.289-13.142-9.934 12.076-14.524 18.39-30.002 18.39-45.826 0-15.833-6.32-31.318-18.409-45.85 4.132-3.623 8.534-7.017 13.162-9.91 17.371-10.861 35.658-17.649 51.49-19.113 2.082-.192 4.076-.287 5.973-.287 10.129 0 17.499 2.705 20.622 7.7 6.901 11.037-5.983 37.502-36.16 59.308-2.618 1.891-4.168 4.924-4.168 8.153s1.55 6.262 4.168 8.153c30.178 21.805 43.061 48.269 36.16 59.307z"/><path d="m236.558 291.125c-8.48-13.565-33.02-12.451-57.08 2.592-.037.023-.075.047-.112.071-18.872 12.382-28.444 25.541-28.45 39.112-.006 13.577 9.564 26.755 28.445 39.167.038.025.077.05.116.074 12.81 8.009 25.752 12.069 36.338 12.069 9.297 0 16.776-3.134 20.742-9.477 4.836-7.736 5.358-31.812 5.358-41.805.002-9.991-.52-34.067-5.357-41.803zm-50.623 70.818c-15.231-10.025-22.952-19.795-22.947-29.038.004-9.237 7.724-18.99 22.945-28.989 18.278-11.406 36.394-12.787 40.391-6.393.89 1.424 2.001 6.632 2.735 15.115h-17.588c-3.333 0-6.035 2.702-6.035 6.035s2.702 6.035 6.035 6.035h18.258c.075 2.578.117 5.316.117 8.22 0 2.485-.031 4.851-.086 7.098h-29.601c-3.333 0-6.035 2.702-6.035 6.035s2.702 6.035 6.035 6.035h28.994c-.73 9.148-1.899 14.751-2.828 16.238-3.998 6.395-22.111 5.016-40.39-6.391z"/></g><path d="m154.919 258.7c-5.136 0-9.521-3.914-10.005-9.129-.514-5.53 3.551-10.431 9.082-10.946 1.134-.106 28.038-2.561 51.348-.386 5.531.516 9.597 5.418 9.082 10.949-.516 5.531-5.414 9.606-10.95 9.081-21.41-1.996-47.357.363-47.616.387-.316.03-.63.044-.941.044z" fill="#fff"/><circle cx="77.949" cy="314.504" fill="#3c122c" r="14.779"/></g></g></svg>