<svg id="Capa_1" enable-background="new 0 0 512 512" height="512" viewBox="0 0 512 512" width="512" xmlns="http://www.w3.org/2000/svg"><g><g><path d="m122.609 474.581c-4.632-4.632 9.196-27.538 5.551-32.718-30.603-43.476-26.464-103.942 12.417-142.822l56.463-56.463c43.512-43.512 93.27-22.723 136.782 20.789 43.512 43.512 64.302 93.27 20.789 136.782l-56.463 56.463c-38.559 38.559-98.347 42.948-141.739 13.169-5.575-3.824-28.847 9.754-33.8 4.8z" fill="#f6e06e"/><path d="m107.459 345.717h208.899v73.155h-208.899z" fill="#9781dd" transform="matrix(.707 .707 -.707 .707 332.39 -37.87)"/><path d="m222.926 444.404c-18.22-.314-36.365-5.825-52.013-16.564-4.755-3.263-20.986-19.395-24.095-23.814-11.97-17.005-17.689-37.058-17.196-56.985-4.729-3.437-9.34-6.994-13.675-10.752-13.814 34.439-9.746 74.379 12.212 105.573 3.646 5.179-10.183 28.085-5.551 32.717 4.954 4.954 28.226-8.624 33.8-4.798 31.133 21.366 70.7 25.127 104.816 11.311-12.904-12.085-25.529-24.361-38.298-36.688z" fill="#dda86a"/><path d="m283.348 469.049c-7.707-10.413-13.905-22.103-16.998-34.259-13.648 6.673-28.561 9.871-43.424 9.615 12.769 12.327 25.395 24.603 38.299 36.69 7.705-3.121 15.134-7.132 22.123-12.046z" fill="#8962de"/><path d="m157.408 282.209-16.832 16.832c-10.983 10.983-19.19 23.69-24.629 37.249 4.334 3.757 8.946 7.314 13.675 10.752.582-23.527 9.832-46.878 27.786-64.833z" fill="#8962de"/><circle cx="361.532" cy="235.657" fill="#f6e06e" r="80.734"/><path d="m418.62 178.57c-3.105-3.105-6.406-5.892-9.853-8.386 10.669 15.777 12.569 35.716 5.697 52.975-4.382 11.004-18.562 13.976-26.937 5.6l-64.219-64.219c-6.774 3.644-13.143 8.311-18.862 14.03-.17.17-.326.349-.494.52l114.149 114.149c.171-.168.35-.324.52-.494 31.527-31.529 31.527-82.647-.001-114.175z" fill="#dda86a"/><path d="m175.676 330.129c-45.95-2.386-81.511-36.836-79.429-76.947 2.083-40.111 41.021-70.693 86.971-68.307s146.806 60.585 145.778 80.393c-1.028 19.806-107.37 67.247-153.32 64.861z" fill="#c1e5ef"/><path d="m328.996 265.267c.557-10.726-28.767-32.709-63.068-50.992 21.875 12.819 38.866 26.592 38.49 33.821-.804 15.484-83.935 52.57-119.856 50.704-35.921-1.865-63.72-28.796-62.092-60.152 1.571-30.25 29.958-53.559 64.211-53.492-1.182-.123-2.344-.224-3.463-.283-45.95-2.386-84.888 28.196-86.971 68.307s33.479 74.562 79.429 76.947c45.95 2.388 152.292-45.053 153.32-64.86z" fill="#a6aaed"/><path d="m266.907 421.515c2.273 45.956 36.635 81.602 76.751 79.618s70.794-40.847 68.521-86.802c-2.273-45.956-60.223-146.956-80.033-145.976-19.809.98-67.511 107.204-65.239 153.16z" fill="#c1e5ef"/><path d="m412.18 414.331c-2.273-45.956-60.223-146.955-80.033-145.976s-67.513 107.204-65.24 153.16 36.635 81.602 76.751 79.618c40.117-1.983 70.795-40.846 68.522-86.802zm-70.602 44.719c-32.864 1.625-61.014-27.577-62.876-65.224-1.862-37.648 37.217-124.668 53.445-125.47 16.228-.803 63.702 81.938 65.564 119.585s-23.27 69.484-56.133 71.109z" fill="#a6aaed"/><path d="m360.307 332.628-95.746-95.746c-13.349-13.349-13.349-34.993 0-48.342 13.349-13.349 34.993-13.349 48.342 0l95.746 95.746c13.349 13.349 13.349 34.993 0 48.342-13.349 13.35-34.993 13.35-48.342 0z" fill="#faf1a9"/><path d="m408.649 284.286-14.429-14.429c8.579 8.579 8.579 22.488 0 31.067-8.579 8.579-22.488 8.579-31.067 0l-89.954-89.954c-7.267-7.267-8.353-18.349-3.308-26.786-1.883 1.246-3.671 2.698-5.33 4.358-13.349 13.349-13.349 34.993 0 48.342l95.746 95.746c13.349 13.349 34.993 13.349 48.342 0 13.35-13.351 13.35-34.995 0-48.344z" fill="#dfb5a7"/><path d="m226.634 33.557 8.861 24.917c.379 1.067 1.13 1.912 2.078 2.339l22.137 9.974c3.128 1.409 3.128 6.392 0 7.801l-22.137 9.974c-.948.427-1.699 1.272-2.078 2.339l-8.861 24.917c-1.252 3.52-5.679 3.52-6.931 0l-8.861-24.918c-.379-1.067-1.13-1.912-2.078-2.339l-22.137-9.974c-3.128-1.409-3.128-6.392 0-7.801l22.137-9.974c.948-.427 1.699-1.272 2.078-2.339l8.861-24.917c1.252-3.519 5.679-3.519 6.931.001z" fill="#faf1a9"/><path d="m96.542 1.958 6.573 18.483c.281.791.839 1.418 1.542 1.735l16.421 7.398c2.32 1.045 2.32 4.742 0 5.787l-16.421 7.398c-.703.317-1.26.944-1.542 1.735l-6.573 18.483c-.929 2.611-4.213 2.611-5.141 0l-6.573-18.483c-.282-.791-.839-1.418-1.542-1.735l-16.421-7.398c-2.32-1.045-2.32-4.742 0-5.787l16.421-7.398c.703-.317 1.26-.944 1.542-1.735l6.573-18.483c.928-2.611 4.213-2.611 5.141 0z" fill="#faf1a9"/><g fill="#f6e06e"><ellipse cx="49.244" cy="140.548" rx="19.349" ry="19.349" transform="matrix(.232 -.973 .973 .232 -98.889 155.891)"/><circle cx="344.04" cy="50.909" r="8.347"/></g></g><g><path d="m481.199 196.204c-2.388-5.459-8.748-7.946-14.207-5.56l-21.225 9.285c-4.454-10.538-10.946-20.413-19.52-28.987-8.575-8.574-18.449-15.066-28.987-19.519l9.286-21.225c2.388-5.458-.101-11.819-5.559-14.206-5.462-2.39-11.819.101-14.207 5.559l-10.435 23.851c-27.183-4.424-55.974 3.413-77.394 23.511-3.313-.766-6.734-1.172-10.219-1.172-12.012 0-23.305 4.677-31.799 13.171-3.755 3.755-6.699 8.017-8.846 12.565-22.428-10.179-46.361-18.443-64.31-19.375-24.822-1.299-48.68 5.993-67.159 20.506-18.913 14.855-29.974 35.458-31.145 58.014-1.171 22.557 7.696 44.195 24.969 60.928 1.044 1.011 2.112 1.996 3.201 2.956-23.1 39.651-22.362 89.792 4.109 129.259-.534 2.257-1.831 5.976-2.676 8.399-2.04 5.848-4.117 11.809-4.196 17.184l-8.456 8.456c-4.213 4.213-4.212 11.044.001 15.256 2.106 2.106 4.867 3.159 7.628 3.159s5.522-1.053 7.628-3.159l8.604-8.604c5.365-.06 11.297-1.972 17.12-3.849 2.593-.837 6.625-2.138 8.917-2.577 20.451 13.45 43.751 20.036 66.948 20.034 21.279-.002 42.462-5.557 61.259-16.434 15.415 17.539 36.732 28.37 59.956 28.37 1.228 0 2.468-.031 3.706-.093 45.993-2.273 81.326-46.285 78.763-98.109-.891-18.027-9.159-42.111-19.342-64.646 4.586-2.151 8.882-5.113 12.664-8.895 11.373-11.373 15.36-27.372 11.979-41.997 20.114-21.423 27.958-50.223 23.533-77.415l23.85-10.434c5.459-2.389 7.948-8.75 5.561-14.207zm-374.179 57.537c.843-16.242 8.985-31.216 22.925-42.165 13.272-10.424 30.246-16.045 48.213-16.045 1.493 0 2.995.039 4.5.117 14.305.743 36.673 8.01 61.203 19.603.544 9.702 4.21 19.255 10.993 27.019l-58.88 2.394c-3.572.145-6.35 3.158-6.204 6.731.142 3.482 3.009 6.209 6.462 6.209.089 0 .178-.002.268-.005l70.648-2.872 27.022 27.021c-8.813 4.973-19.944 10.491-33.304 16.09-33.937 14.222-66.369 22.473-84.629 21.519-19.618-1.019-37.652-8.584-50.78-21.301-12.733-12.335-19.281-28.073-18.437-44.315zm150.816 217.057-131.465-131.465c1.483-3.565 3.177-7.06 5.083-10.465 13.11 7.057 28.015 11.221 43.662 12.033 1.288.067 2.606.1 3.961.1 8.99-.001 19.378-1.444 30.289-3.823l50.583 50.583c-2.774 12.563-4.303 24.435-3.816 34.286.775 15.663 4.928 30.271 11.61 42.973l-2.211 2.211c-2.522 1.304-5.091 2.488-7.696 3.567zm5.796-97.66-39.61-39.61c17.184-4.771 34.707-11.234 49.442-17.607 5.054-2.186 9.917-4.411 14.559-6.653-2.246 4.622-4.475 9.462-6.666 14.494-6.408 14.713-12.912 32.211-17.725 49.376zm-101.12 87.749c-2.704-1.855-5.704-2.568-8.919-2.568-5.169 0-10.89 1.846-16.813 3.757-.552.178-1.167.376-1.816.583.17-.491.333-.958.482-1.385 3.479-9.973 6.484-18.585 1.533-25.618-17.435-24.769-22.253-54.959-15.194-82.6l122.308 122.309c-27.273 6.924-57.057 2.354-81.581-14.478zm180.614 29.473c-34.097 1.66-63.469-29.436-65.445-69.378-.903-18.267 7.422-50.675 21.728-84.575 5.63-13.342 11.172-24.453 16.166-33.252l25.702 25.702-2.872 70.648c-.145 3.572 2.633 6.585 6.204 6.731.09.003.178.005.267.005 3.453 0 6.321-2.728 6.463-6.209l2.389-58.774c7.936 7.445 17.929 11.469 28.094 12.064 11.615 24.675 18.872 47.18 19.583 61.544 1.976 39.939-24.168 73.806-58.279 75.494zm57.895-165.36c-9.122 9.123-23.964 9.123-33.086 0l-95.745-95.745c-9.122-9.122-9.122-23.964 0-33.086 4.419-4.419 10.293-6.853 16.543-6.853s12.124 2.434 16.543 6.853l95.746 95.745c9.121 9.122 9.121 23.964-.001 33.086zm16.33-47.212c-.354-.379-.704-.76-1.074-1.13l-95.746-95.745c-.363-.363-.739-.71-1.112-1.059 12.415-9.388 27.253-14.11 42.113-14.11 17.909 0 35.825 6.819 49.459 20.454 24.949 24.949 27.06 64.204 6.36 91.59z" fill="#3c122c"/><path d="m150.621 235.323c-4.28 0-8.32-2.578-10.006-6.803-2.208-5.534.518-11.821 6.052-14.028.831-.332 20.649-8.056 46.995-3.182 5.858 1.085 9.727 6.714 8.643 12.572-1.085 5.858-6.715 9.73-12.572 8.643-19.934-3.693-34.98 1.972-35.129 2.029-1.309.521-2.658.769-3.983.769z" fill="#fff"/><g fill="#3c122c"><path d="m229.491 409.612c-1.737 0-3.469-.695-4.744-2.068-2.432-2.62-2.281-6.715.338-9.147l8.957-8.317c2.62-2.434 6.715-2.279 9.147.338 2.432 2.62 2.281 6.715-.338 9.147l-8.957 8.317c-1.247 1.157-2.827 1.73-4.403 1.73z"/><path d="m193.936 391.666c-1.737 0-3.469-.695-4.744-2.068-2.432-2.62-2.281-6.715.338-9.147l8.957-8.317c2.62-2.434 6.715-2.28 9.147.338 2.432 2.62 2.281 6.715-.338 9.147l-8.957 8.317c-1.247 1.158-2.827 1.73-4.403 1.73z"/></g></g></g></svg>