<svg id="Capa_1" enable-background="new 0 0 512 512" height="512" viewBox="0 0 512 512" width="512" xmlns="http://www.w3.org/2000/svg"><g><g><path d="m273.936 501.786h-29.804c-11.057 0-20.02-8.964-20.02-20.021v-153.718h69.845v153.718c-.001 11.057-8.965 20.021-20.021 20.021z" fill="#a07575"/><path d="m222.23 381.296h70.841v46.864h-70.841z" fill="#925873"/><path d="m392.413 340.309-50.847-59.257h24.662c20.104 0 30.945-23.587 17.853-38.845l-56.105-65.386h15.287c16.412 0 26.066-18.438 16.715-31.926l-86.76-125.148c-6.864-9.9-21.503-9.9-28.367 0l-86.76 125.148c-9.351 13.488.302 31.926 16.715 31.926h15.287l-56.105 65.386c-13.092 15.257-2.251 38.845 17.853 38.845h24.662l-50.847 59.257c-13.964 16.274-2.401 41.432 19.043 41.432h228.671c21.444 0 33.007-25.158 19.043-41.432z" fill="#a1e8c3"/><path d="m342.224 117.024-69.007-97.277c-6.864-9.9-21.503-9.9-28.367 0l-69.241 98.569s30.352 15.524 43.268 15.35 19.374-11.476 37.456-11.798c18.082-.323 27.769 11.65 41.008 11.798 13.239.149 44.883-16.642 44.883-16.642z" fill="#fff"/><g fill="#85adc2"><path d="m337.753 279.435h-163.09l-7.712 8.988v19.352l.927-.921h108.413c13.151 0 25.612 5.458 33.97 14.878l30.371 34.231c11.159 11.073 1.179 27.426-16.736 27.431h48.443c22.05 0 34.335-23.637 20.602-39.641z"/><path d="m380.076 239.984-45.544-64.203h-149.794l-3.724 5.25v20.619l.817-.98h95.495c11.584 0 22.561 5.815 29.922 15.851l26.752 36.472c9.829 11.797 1.039 29.222-14.742 29.227h42.671c19.423.001 30.243-25.185 18.147-42.236z"/><path d="m340.766 117.183c-12.536 6.317-25.287 12.283-38.944 14.732l9.958 18.62c6.364 11.899-2.258 26.287-15.752 26.287h47.235c16.413 0 26.066-18.438 16.715-31.926z"/></g><path d="m273.217 19.747c-6.864-9.9-21.503-9.9-28.367 0l-1.807 2.606c.442.599.852 1.241 1.22 1.93l57.558 107.631c13.657-2.449 26.408-8.415 38.944-14.732z" fill="#e1bdfc"/><path d="m440.942 37.456 8.39 23.592c.359 1.01 1.07 1.811 1.968 2.215l20.961 9.444c2.961 1.334 2.961 6.052 0 7.387l-20.961 9.444c-.897.404-1.609 1.205-1.968 2.215l-8.39 23.592c-1.185 3.333-5.377 3.333-6.563 0l-8.39-23.592c-.359-1.01-1.07-1.811-1.968-2.215l-20.961-9.444c-2.961-1.334-2.961-6.053 0-7.387l20.961-9.444c.898-.404 1.609-1.205 1.968-2.215l8.39-23.592c1.186-3.333 5.378-3.333 6.563 0z" fill="#ccf3e2"/><path d="m111.305 1.854 6.224 17.5c.266.749.794 1.343 1.46 1.643l15.549 7.005c2.197.99 2.197 4.49 0 5.479l-15.549 7.005c-.666.3-1.193.894-1.46 1.643l-6.224 17.5c-.879 2.472-3.989 2.472-4.868 0l-6.224-17.5c-.266-.749-.794-1.343-1.46-1.643l-15.549-7.005c-2.196-.99-2.196-4.49 0-5.479l15.549-7.005c.666-.3 1.193-.894 1.46-1.643l6.224-17.5c.879-2.472 3.989-2.472 4.868 0z" fill="#ccf3e2"/><ellipse cx="48.214" cy="133.849" fill="#a1e8c3" rx="18.321" ry="18.321" transform="matrix(.23 -.973 .973 .23 -93.132 150.022)"/><circle cx="474.203" cy="176.316" fill="#a1e8c3" r="7.903"/></g><g><path d="m400.165 333.657-36.375-42.391h2.438c13.338 0 25.086-7.529 30.656-19.649 5.571-12.12 3.635-25.938-5.051-36.062l-42.206-49.186c8.8-1.861 16.419-7.532 20.704-15.715 5.29-10.105 4.539-22.204-1.959-31.578l-86.76-125.148c-5.132-7.402-13.573-11.821-22.579-11.82-9.006 0-17.446 4.419-22.577 11.821h.001l-86.761 125.148c-6.498 9.373-7.248 21.473-1.958 31.578 4.285 8.183 11.903 13.853 20.703 15.714l-42.206 49.186c-8.686 10.124-10.622 23.941-5.051 36.061 5.57 12.121 17.317 19.65 30.657 19.65h2.438l-36.374 42.391c-9.09 10.593-11.116 25.053-5.287 37.736 5.829 12.684 18.122 20.563 32.081 20.563h69.2v89.81c0 16.672 13.563 30.235 30.235 30.235h29.804c16.672 0 30.235-13.563 30.235-30.235v-89.81h69.2c13.959 0 26.251-7.879 32.08-20.562 5.827-12.684 3.802-27.143-5.288-37.737zm-146.921-308.09c.001 0 .001 0 0 0 1.897-2.736 4.68-3.031 5.789-3.031s3.893.295 5.79 3.031l63.001 90.878c-7.945.769-12.719 3.303-17.002 5.589-4.591 2.45-8.216 4.385-16.252 4.385-8.037 0-11.663-1.935-16.253-4.385-5.12-2.732-10.923-5.829-22.025-5.829-11.101 0-16.903 3.097-22.021 5.829-4.59 2.45-8.215 4.385-16.25 4.385-8.036 0-11.661-1.935-16.251-4.385-3.314-1.769-6.924-3.685-12.062-4.82zm-87.409 135.612c-.855-1.632-2.502-5.919.648-10.464l15.389-22.199c6.583.316 9.964 2.109 14.126 4.331 5.119 2.733 10.921 5.829 22.023 5.829 11.101 0 16.902-3.097 22.021-5.829 4.59-2.45 8.215-4.385 16.25-4.385 8.037 0 11.663 1.935 16.253 4.385 5.119 2.732 10.923 5.829 22.025 5.829s16.904-3.097 22.023-5.829c4.59-2.45 8.216-4.385 16.253-4.385 1.021 0 1.981-.253 2.827-.695l15.908 22.948c3.151 4.545 1.503 8.832.649 10.464-.855 1.632-3.439 5.428-8.969 5.428h-168.456c-5.53 0-8.115-3.796-8.97-5.428zm-26.091 101.906c-2.23-4.854-1.485-10.173 1.993-14.227l53.049-61.823h128.495l53.049 61.823c3.478 4.054 4.223 9.372 1.993 14.227-2.231 4.854-6.753 7.752-12.094 7.752h-214.389c-5.343 0-9.865-2.898-12.096-7.752zm143.998 218.68c0 5.407-4.399 9.806-9.806 9.806h-29.804c-5.407 0-9.806-4.399-9.806-9.806v-89.81h49.416zm103.146-118.903c-2.493 5.425-7.547 8.665-13.518 8.665h-228.672c-5.971 0-11.025-3.239-13.519-8.665s-1.661-11.37 2.227-15.901l47.79-55.695h155.676l47.79 55.694c3.888 4.532 4.721 10.477 2.226 15.902z" fill="#3c122c"/><path d="m255.706 253.31h-69.817c-5.641 0-10.214-4.573-10.214-10.214s4.574-10.214 10.214-10.214h69.817c5.641 0 10.214 4.573 10.214 10.214s-4.573 10.214-10.214 10.214z" fill="#fff"/><path d="m203.038 352.969h-28.053c-5.641 0-10.214-4.573-10.214-10.214s4.574-10.214 10.214-10.214h28.053c5.641 0 10.214 4.573 10.214 10.214s-4.574 10.214-10.214 10.214z" fill="#fff"/><g fill="#3c122c"><path d="m283.219 349.436c-3.384 0-6.128-2.744-6.128-6.129v-11.573c0-3.384 2.744-6.129 6.128-6.129 3.385 0 6.129 2.744 6.129 6.129v11.573c0 3.385-2.744 6.129-6.129 6.129z"/><path d="m312.938 242.755c-3.384 0-6.129-2.744-6.129-6.129v-11.573c0-3.385 2.744-6.128 6.129-6.128 3.384 0 6.129 2.744 6.129 6.128v11.573c-.001 3.385-2.745 6.129-6.129 6.129z"/><path d="m326.197 349.436c-3.385 0-6.129-2.744-6.129-6.129v-11.573c0-3.384 2.744-6.129 6.129-6.129 3.384 0 6.129 2.744 6.129 6.129v11.573c0 3.385-2.744 6.129-6.129 6.129z"/></g></g></g></svg>