<svg id="Capa_1" enable-background="new 0 0 512 512" height="512" viewBox="0 0 512 512" width="512" xmlns="http://www.w3.org/2000/svg"><g><g><path d="m252.086 501.763c-12.051 0-21.821-9.769-21.821-21.82v-195.529h43.641v195.529c0 12.051-9.769 21.82-21.82 21.82z" fill="#a1e8c3"/><path d="m309.113 337.807c-29.202 9.914-28.353 47.217-28.353 47.217s22.039 30.108 51.24 20.194c24.475-8.309 46.213-42.095 52.61-52.816 1.075-1.801.344-3.953-1.605-4.728-11.602-4.61-49.417-18.176-73.892-9.867z" fill="#a1e8c3"/><path d="m383.005 347.675c-11.602-4.61-49.417-18.176-73.892-9.867-1.97.669-3.798 1.465-5.504 2.364 17.56-2.918 40.832 5.457 48.476 8.495 1.419.564 1.951 2.13 1.169 3.442-4.657 7.805-20.483 32.402-38.302 38.452-15.46 5.249-28.155-4.906-33.935-10.84-.304 3.26-.257 5.305-.257 5.305s22.039 30.109 51.24 20.194c24.474-8.31 46.213-42.095 52.61-52.816 1.075-1.803.344-3.955-1.605-4.729z" fill="#85adc2"/><path d="m195.058 337.807c29.202 9.914 28.353 47.217 28.353 47.217s-22.039 30.108-51.24 20.194c-24.475-8.309-46.213-42.095-52.61-52.816-1.075-1.801-.344-3.953 1.605-4.728 11.603-4.61 49.418-18.176 73.892-9.867z" fill="#a1e8c3"/><path d="m382.709 172.106-45.076-116.722c-2.746-7.111-12.807-7.111-15.553 0l-17.87 46.274c-16.018-33.057-36.432-57.983-52.123-57.983s-36.105 24.925-52.123 57.983l-18.054-46.749c-2.746-7.111-12.441-7.111-15.186 0l-44.071 114.119c-20.953 54.258 17.525 113.323 73.824 113.323h37.953 35.316 37.36c56.922.001 96.11-57.143 75.603-110.245z" fill="#d789b9"/><path d="m253.136 43.725c10.864 20.26 19.4 47.005 19.4 68.812 0 40.998-22.054 49.015-49.259 49.015-1.59 0-3.156-.038-4.708-.098 12.626 28.046 26.331 55.608 38.48 83.871 8.062-21.593 15.826-43.297 23.103-65.167 8.559-25.725 16.146-51.756 24.519-77.539-15.733-32.794-35.838-57.814-51.535-58.894z" fill="#c668b9"/><path d="m381.521 169.028-44.071-114.119c-2.746-7.11-12.441-7.11-15.187 0l-4.331 11.215 32.796 84.924c16.567 42.899-13.856 89.6-58.37 89.6h-38.72l-.955-2.472h-30.597v-.323h-40.831c-32.107 0-57.046-23.751-63.023-53.144-8.988 49.359 27.341 97.644 78.243 97.644h37.953 35.316 37.952c56.299-.001 94.778-59.068 73.825-113.325z" fill="#c668b9"/><path d="m80.296 2.505 8.409 23.644c.36 1.012 1.073 1.815 1.972 2.22l21.007 9.465c2.968 1.337 2.968 6.066 0 7.403l-21.007 9.465c-.899.405-1.612 1.207-1.972 2.22l-8.409 23.644c-1.188 3.34-5.389 3.34-6.577 0l-8.409-23.645c-.36-1.012-1.073-1.814-1.972-2.22l-21.008-9.464c-2.968-1.337-2.968-6.066 0-7.403l21.007-9.465c.899-.405 1.612-1.207 1.972-2.22l8.409-23.644c1.188-3.34 5.39-3.34 6.578 0z" fill="#e8c2d8"/><path d="m471.144 94.737 6.238 17.539c.267.751.796 1.346 1.463 1.647l15.583 7.021c2.202.992 2.202 4.499 0 5.491l-15.583 7.021c-.667.301-1.196.896-1.463 1.647l-6.238 17.539c-.881 2.478-3.997 2.478-4.879 0l-6.238-17.539c-.267-.751-.796-1.346-1.463-1.647l-15.583-7.021c-2.201-.992-2.201-4.499 0-5.491l15.583-7.021c.667-.301 1.196-.896 1.463-1.647l6.238-17.539c.881-2.478 3.997-2.478 4.879 0z" fill="#e8c2d8"/><g fill="#d789b9"><ellipse cx="421.74" cy="40.577" rx="18.361" ry="18.361" transform="matrix(.23 -.973 .973 .23 285.352 441.713)"/><path d="m31.763 143.491c0 4.374-3.546 7.921-7.92 7.921-4.375 0-7.921-3.546-7.921-7.921 0-4.374 3.546-7.921 7.921-7.921 4.374.001 7.92 3.547 7.92 7.921z"/></g></g><g><path d="m386.786 338.162c-15.317-6.087-53.863-19.247-80.963-10.048-9.598 3.258-16.588 8.729-21.68 15.029v-50.555h22.961c30.11 0 58.253-14.825 75.282-39.656 17.03-24.832 20.72-56.426 9.873-84.514l-45.077-116.722c-2.787-7.218-9.588-11.882-17.325-11.882-7.738 0-14.538 4.664-17.326 11.882l-9.876 25.574c-11.797-19.575-30.472-43.831-50.568-43.831s-38.771 24.255-50.569 43.83l-10.059-26.047c-2.787-7.218-9.516-11.882-17.143-11.882s-14.355 4.663-17.143 11.882l-44.071 114.118c-11.345 29.376-7.548 62.327 10.158 88.144 17.043 24.852 43.729 39.105 73.216 39.105h23.552v50.554c-5.092-6.3-12.082-11.77-21.679-15.028-27.097-9.2-65.647 3.962-80.961 10.047-3.722 1.479-6.583 4.468-7.852 8.201-1.268 3.733-.818 7.847 1.234 11.285 8.445 14.152 31.012 48.064 58.11 57.264 5.366 1.822 10.507 2.6 15.373 2.6 15.021 0 27.419-7.41 35.775-14.392v76.823c0 17.676 14.381 32.057 32.058 32.057s32.057-14.381 32.057-32.057v-76.821c8.355 6.982 20.753 14.391 35.776 14.389 4.865-.001 10.009-.778 15.373-2.6 27.102-9.202 49.666-43.112 58.109-57.264 2.052-3.438 2.502-7.552 1.235-11.285-1.269-3.733-4.13-6.722-7.85-8.2zm-211.324 57.363c-14.869-5.048-31.021-23.518-42.662-41.264 20.04-6.991 44.096-11.809 58.967-6.76 12.316 4.181 17.549 15.318 19.773 24.348l-28.555-11.091c-3.162-1.23-6.721.338-7.949 3.501-1.229 3.162.34 6.721 3.502 7.949l31.658 12.296c-6.761 6.613-19.717 16.12-34.734 11.021zm154.394-331.863 43.304 112.131c8.539 22.114 5.748 46.009-7.66 65.559-13.407 19.55-34.692 30.762-58.397 30.762h-37.36-20.388zm-77.77-9.75c8.04 0 25.086 16.912 40.953 48.257l-40.953 106.046-40.953-106.046c15.867-31.346 32.913-48.257 40.953-48.257zm-111.941 187.992c-13.886-20.247-16.856-46.112-7.945-69.189l42.116-109.054 66.797 172.967-13.704 35.486h-30.933c-22.633.001-43.166-11.01-56.331-30.21zm123.524 238.039c0 6.388-5.196 11.584-11.583 11.584-6.388 0-11.584-5.196-11.584-11.584v-185.292h23.168v185.292zm65.041-84.418c-15.025 5.1-27.986-4.418-34.738-11.02l31.662-12.297c3.162-1.228 4.73-4.787 3.502-7.949-1.228-3.163-4.788-4.729-7.949-3.501l-28.553 11.09c2.225-9.035 7.459-20.167 19.771-24.347 14.871-5.049 38.927-.231 58.967 6.76-11.639 17.746-27.79 36.215-42.662 41.264z" fill="#3c122c"/><path d="m156.492 194.268c-1.094 0-2.205-.177-3.298-.548-5.352-1.821-8.215-7.636-6.394-12.988l13.951-41.009c1.819-5.353 7.637-8.214 12.988-6.395 5.352 1.821 8.215 7.636 6.394 12.988l-13.952 41.009c-1.447 4.26-5.427 6.943-9.689 6.943z" fill="#fff"/><g fill="#3c122c"><path d="m329.061 175.044c-3.392 0-6.142-2.75-6.142-6.142v-11.599c0-3.392 2.75-6.142 6.142-6.142s6.142 2.75 6.142 6.142v11.599c.001 3.392-2.75 6.142-6.142 6.142z"/><path d="m343.851 215.353c-3.392 0-6.142-2.75-6.142-6.142v-11.599c0-3.392 2.75-6.142 6.142-6.142s6.142 2.75 6.142 6.142v11.599c0 3.392-2.75 6.142-6.142 6.142z"/><path d="m301.221 243.482c-3.392 0-6.142-2.75-6.142-6.142v-11.599c0-3.392 2.75-6.142 6.142-6.142s6.142 2.75 6.142 6.142v11.599c0 3.392-2.75 6.142-6.142 6.142z"/></g></g></g></svg>