<svg id="Capa_1" enable-background="new 0 0 512 512" height="512" viewBox="0 0 512 512" width="512" xmlns="http://www.w3.org/2000/svg"><g><g><path d="m263.841 501.974c-11.803 0-21.37-9.568-21.37-21.37v-131.01h42.741v131.01c0 11.802-9.568 21.37-21.371 21.37z" fill="#a1e8c3"/><path d="m311.703 57.858c0 26.417-18.48 91.181-47.833 91.181-29.352 0-47.832-64.764-47.832-91.181s21.415-47.833 47.832-47.833c26.418.001 47.833 21.416 47.833 47.833z" fill="#f6e06e"/><path d="m263.871 10.026c-2.002 0-3.971.137-5.909.376 17.794 2.536 31.477 17.829 31.477 36.324 0 20.269-14.179 69.961-36.7 69.961-20.605 0-34.224-41.59-36.394-64.191-.197 1.762-.307 3.549-.307 5.363 0 26.417 18.48 91.181 47.833 91.181 29.352 0 47.833-64.764 47.833-91.181-.001-26.418-21.416-47.833-47.833-47.833z" fill="#dda86a"/><path d="m398.357 132.877c-18.611 18.748-77.352 51.692-98.184 31.014-20.831-20.679 11.679-79.661 30.29-98.41s48.896-18.86 67.645-.249c18.748 18.611 18.859 48.896.249 67.645z" fill="#f6e06e"/><path d="m398.107 65.232c-18.748-18.611-49.034-18.499-67.645.249-.785.79-1.596 1.658-2.425 2.586 13.501-11.774 34.003-11.288 46.916 1.53 13.513 13.414 13.594 35.242.18 48.755s-55.752 37.258-70.766 22.353c-7.64-7.584-5.317-22.315.567-36.738-10.871 22.599-16.953 47.821-4.761 59.923 20.831 20.678 79.573-12.266 98.184-31.014 18.61-18.748 18.499-49.033-.25-67.644z" fill="#dda86a"/><path d="m406.832 247.692c-26.417.097-91.248-18.144-91.356-47.496s64.587-48.071 91.004-48.168 47.911 21.239 48.009 47.656c.096 26.416-21.24 47.911-47.657 48.008z" fill="#f6e06e"/><path d="m406.479 152.027c-26.417.098-91.112 18.816-91.004 48.168-.082-22.156 48.753-36.285 68.693-36.359 19.941-.073 36.165 16.032 36.239 35.973.073 19.941-16.032 36.165-35.973 36.238-19.629.072-67.355-13.269-68.92-34.819 1.602 28.746 65.212 46.56 91.317 46.464 26.417-.097 47.753-21.592 47.656-48.009-.096-26.417-21.591-47.753-48.008-47.656z" fill="#dda86a"/><path d="m331.638 334.871c-18.749-18.611-51.692-77.352-31.014-98.184 20.679-20.831 79.661 11.679 98.41 30.289 18.749 18.611 18.86 48.897.249 67.645-18.611 18.75-48.896 18.861-67.645.25z" fill="#f6e06e"/><path d="m399.034 266.977c-18.561-18.425-76.548-50.463-97.771-30.89 16.354-14.679 60.473 9.718 74.624 23.765 14.339 14.234 14.424 37.396.191 51.734s-37.396 14.424-51.734.19c-14.114-14.011-38.748-57.761-24.431-74.322-19.174 21.467 13.201 79.028 31.726 97.416 18.749 18.611 49.034 18.499 67.645-.249 18.61-18.747 18.499-49.033-.25-67.644z" fill="#dda86a"/><path d="m216.823 343.346c-.097-26.417 18.144-91.248 47.496-91.356s48.071 64.587 48.168 91.004-21.239 47.911-47.656 48.009c-26.416.097-47.91-21.24-48.008-47.657z" fill="#f6e06e"/><path d="m264.32 251.99c-2.087.008-4.116.353-6.088.978 19.262 6.863 31.282 49.888 31.35 68.354.074 20.114-16.171 36.48-36.285 36.554-17.104.063-31.49-11.677-35.461-27.56-.682 4.905-1.026 9.342-1.013 13.03.097 26.417 21.592 47.754 48.009 47.656 26.417-.097 47.753-21.592 47.656-48.009-.097-26.416-18.816-91.111-48.168-91.003z" fill="#dda86a"/><path d="m129.644 268.153c18.611-18.748 77.352-51.692 98.184-31.014s-11.679 79.661-30.29 98.41-48.897 18.86-67.645.249-18.86-48.897-.249-67.645z" fill="#f6e06e"/><path d="m227.828 237.139c-12.207-12.117-37.429-5.82-59.968 5.242 14.231-5.911 28.776-8.293 36.337-.788 14.895 14.785-8.35 56.958-21.657 70.363s-34.961 13.485-48.366.178c-12.795-12.701-13.44-33.002-1.902-46.481-.945.855-1.826 1.691-2.628 2.499-18.611 18.749-18.499 49.034.249 67.645 18.749 18.611 49.034 18.499 67.645-.249s51.121-77.73 30.29-98.409z" fill="#dda86a"/><path d="m121.169 153.338c26.417-.097 91.248 18.144 91.357 47.496.108 29.352-64.587 48.071-91.004 48.168s-47.911-21.239-48.008-47.656c-.099-26.417 21.238-47.911 47.655-48.008z" fill="#f6e06e"/><path d="m196.362 66.159c18.749 18.611 51.692 77.352 31.014 98.184-20.679 20.831-79.661-11.679-98.41-30.29-18.748-18.611-18.86-48.897-.249-67.645 18.611-18.749 48.897-18.86 67.645-.249z" fill="#f6e06e"/><ellipse cx="263.87" cy="201.232" fill="#a07575" rx="91.703" ry="91.703" transform="matrix(.707 -.707 .707 .707 -65.007 245.524)"/><path d="m263.871 109.529c-3.502 0-6.956.203-10.356.585 35.643 4.461 63.226 34.85 63.226 71.702 0 39.923-32.364 72.287-72.287 72.287-36.852 0-67.241-27.583-71.702-63.226-.382 3.4-.585 6.854-.585 10.356 0 50.646 41.057 91.703 91.703 91.703s91.703-41.057 91.703-91.703c.001-50.647-41.056-91.704-91.702-91.704z" fill="#925873"/><path d="m211.073 184.012c3.985-12.078 12.078-22.67 22.783-29.561" style="fill:none;stroke:#fff;stroke-width:20;stroke-linecap:round;stroke-linejoin:round;stroke-miterlimit:10"/><path d="m324.819 396.459c-35.982 12.216-34.937 58.181-34.937 58.181s27.156 37.099 63.138 24.883c30.157-10.239 56.943-51.87 64.825-65.08 1.324-2.219.424-4.871-1.978-5.826-14.295-5.68-60.89-22.397-91.048-12.158z" fill="#a1e8c3"/><path d="m415.868 408.617c-14.296-5.68-60.892-22.397-91.049-12.159-2.427.824-4.68 1.806-6.782 2.913 21.637-3.596 50.313 6.725 59.732 10.467 1.748.695 2.404 2.625 1.44 4.241-5.738 9.617-25.239 39.926-47.195 47.38-19.05 6.468-34.693-6.046-41.815-13.357-.374 4.016-.317 6.537-.317 6.537s27.156 37.099 63.138 24.883c30.157-10.239 56.943-51.87 64.825-65.08 1.325-2.218.425-4.871-1.977-5.825z" fill="#85adc2"/><path d="m132.644 415.431 8.235 23.157c.353.991 1.051 1.777 1.932 2.174l20.574 9.269c2.907 1.31 2.907 5.941 0 7.25l-20.574 9.269c-.881.397-1.579 1.182-1.932 2.174l-8.235 23.157c-1.163 3.272-5.278 3.272-6.441 0l-8.235-23.157c-.353-.991-1.051-1.777-1.932-2.174l-20.574-9.269c-2.907-1.31-2.907-5.941 0-7.25l20.574-9.269c.881-.397 1.579-1.183 1.932-2.174l8.235-23.157c1.163-3.271 5.278-3.271 6.441 0z" fill="#faf1a9"/><path d="m47.753 323.12 6.109 17.177c.262.736.779 1.318 1.433 1.613l15.261 6.876c2.156.971 2.156 4.407 0 5.378l-15.261 6.876c-.653.294-1.171.877-1.433 1.613l-6.109 17.177c-.863 2.427-3.915 2.427-4.778 0l-6.109-17.177c-.262-.736-.779-1.318-1.433-1.613l-15.261-6.876c-2.156-.971-2.156-4.407 0-5.378l15.261-6.876c.653-.294 1.171-.877 1.433-1.613l6.109-17.177c.863-2.427 3.915-2.427 4.778 0z" fill="#faf1a9"/><g fill="#f6e06e"><ellipse cx="475.463" cy="317.545" rx="17.982" ry="17.983" transform="matrix(.383 -.924 .924 .383 .138 635.297)"/><circle cx="52.256" cy="440.166" r="7.757"/></g></g><g fill="#3c122c"><path d="m121.169 153.338h.01z"/><path d="m406.869 257.717c31.902-.117 57.762-26.168 57.644-58.071-.057-15.454-6.129-29.962-17.096-40.849-10.968-10.888-25.522-16.847-40.975-16.796-1.03.004-2.096.033-3.192.083.777-.722 1.518-1.437 2.22-2.145 22.476-22.642 22.341-59.347-.301-81.823s-59.349-22.34-81.823.302c-.551.555-1.108 1.141-1.668 1.743.024-.779.048-1.559.048-2.302.002-31.904-25.952-57.859-57.855-57.859s-57.858 25.955-57.858 57.858c0 1.283.049 2.638.12 4.022-.912-1.001-1.816-1.953-2.707-2.837-10.917-10.836-25.382-16.796-40.755-16.796-.072 0-.146 0-.219 0-15.454.057-29.961 6.128-40.849 17.097-10.888 10.968-16.852 25.519-16.795 40.974s6.128 29.962 17.097 40.85c.732.726 1.507 1.462 2.318 2.202-.969-.036-1.92-.059-2.836-.059-.085 0-.17.001-.253.001-15.455.057-29.962 6.128-40.849 17.097-10.888 10.968-16.852 25.52-16.796 40.974.057 15.454 6.129 29.962 17.097 40.849 10.917 10.836 25.382 16.796 40.755 16.796h.22c1.029-.004 2.096-.033 3.191-.083-.777.721-1.518 1.437-2.22 2.145-22.476 22.642-22.34 59.348.302 81.823 11.267 11.184 26.013 16.769 40.759 16.769 14.887 0 29.773-5.696 41.065-17.07.725-.73 1.458-1.504 2.198-2.314-.039 1.059-.057 2.088-.054 3.085.057 15.454 6.129 29.962 17.097 40.849 2.652 2.633 5.517 4.972 8.551 7.014v89.358c0 17.312 14.084 31.396 31.396 31.396s31.396-14.084 31.396-31.396v-6.032c9.941 8.422 24.839 17.504 42.902 17.504 5.735 0 11.791-.916 18.104-3.06 32.578-11.06 59.955-52.243 70.211-69.435 2.139-3.584 2.611-7.866 1.293-11.747-1.317-3.881-4.297-6.992-8.178-8.534-18.603-7.393-65.394-23.395-97.973-12.335-11.811 4.01-20.281 10.876-26.359 18.745v-13.453c16.426-10.271 27.353-28.543 27.277-49.301-.004-1.029-.033-2.096-.083-3.191.721.777 1.437 1.518 2.145 2.221 10.917 10.836 25.381 16.796 40.754 16.796h.219c15.454-.057 29.962-6.128 40.849-17.097 10.888-10.968 16.853-25.52 16.796-40.974s-6.129-29.962-17.097-40.849c-.732-.727-1.507-1.462-2.318-2.202.969.036 1.92.059 2.837.059.079-.001.164-.002.248-.002zm-78.827 148.235c19.711-6.692 51.738.099 77.438 9.441-14.7 23.057-35.974 47.945-55.683 54.636-22.546 7.656-41.309-9.407-48.595-17.449.68.26 1.402.413 2.142.413.725 0 1.462-.132 2.177-.41l39.092-15.183c3.097-1.203 4.633-4.688 3.43-7.785-1.202-3.097-4.694-4.632-7.785-3.429l-39.041 15.164c2.343-12.176 8.843-29.292 26.825-35.398zm78.475-243.899h.143c10.045 0 19.498 3.895 26.631 10.975 7.167 7.114 11.134 16.594 11.171 26.693.076 20.847-16.821 37.869-37.667 37.946-.06.001-.117.001-.177.001-10.15-.001-27.887-3.169-44.703-9.285 2.397-8.647 3.684-17.75 3.684-27.15 0-10.218-1.521-20.086-4.336-29.397 17-6.385 35.045-9.746 45.254-9.783zm-224.324 39.179c0-45.037 36.641-81.678 81.678-81.678 17.515 0 33.745 5.56 47.059 14.981l-29.834 29.834-6.582-6.582c-2.348-2.349-6.158-2.349-8.506 0-2.35 2.349-2.35 6.158 0 8.507l6.581 6.581-75.415 75.414c-9.422-13.312-14.981-29.542-14.981-47.057zm163.355 0c0 8.346-1.264 16.4-3.6 23.989l-15.602-15.602 18.548-18.548c.415 3.332.654 6.718.654 10.161zm-27.709-.12-28.236-28.236 30.653-30.652c9.918 9.481 17.473 21.413 21.639 34.833zm-36.743-19.729 28.236 28.236-33.889 33.888-15.531-15.531c-2.35-2.349-6.158-2.349-8.507 0s-2.349 6.158 0 8.507l15.532 15.531-27.242 27.242c-13.419-4.166-25.352-11.721-34.833-21.639zm-5.652 79.138 17.158 17.158c-8.943 3.372-18.622 5.232-28.731 5.232-3.443 0-6.829-.239-10.161-.655zm28.725 11.712-20.218-20.219 33.888-33.889 19.25 19.251c-7.256 14.639-18.773 26.795-32.92 34.857zm33.409-199.689c7.379-7.434 17.104-11.154 26.833-11.154 9.635 0 19.273 3.65 26.634 10.957 14.795 14.686 14.883 38.672.197 53.467-7.204 7.257-22.301 17.775-38.812 25.406-9.404-16.587-23.328-30.289-40.092-39.411 7.518-16.671 17.998-31.969 25.24-39.265zm-73.707-52.493c20.847 0 37.807 16.96 37.807 37.807 0 10.268-3.332 28.478-9.726 45.589-8.923-2.566-18.344-3.944-28.081-3.944s-19.158 1.378-28.081 3.944c-6.395-17.111-9.727-35.321-9.727-45.589 0-20.847 16.96-37.807 37.808-37.807zm-128.038 53.42c7.114-7.167 16.594-11.135 26.692-11.172h.143c10.045 0 19.498 3.895 26.631 10.975 7.27 7.217 17.813 22.355 25.448 38.902-16.727 9.263-30.581 23.101-39.866 39.814-16.51-7.504-31.615-17.87-38.851-25.053-7.167-7.114-11.135-16.594-11.171-26.692-.039-10.099 3.859-19.607 10.974-26.774zm-14.349 165.506c-.048.001-.093.001-.141.001-20.78 0-37.728-16.87-37.804-37.668-.037-10.098 3.86-19.607 10.975-26.774 7.114-7.167 16.594-11.134 26.693-11.172h.001.178c10.177 0 27.981 3.186 44.837 9.335-2.651 9.057-4.079 18.632-4.079 28.534 0 9.779 1.391 19.239 3.978 28.195-16.82 6.234-34.553 9.512-44.638 9.549zm68.939 89.509c-14.686 14.795-38.671 14.884-53.467.197-14.795-14.686-14.884-38.672-.197-53.467 7.081-7.133 21.787-17.42 37.968-25.016 9.349 16.952 23.39 30.967 40.364 40.281-7.47 16.178-17.608 30.893-24.668 38.005zm84.763 152.118c0 6.256-5.089 11.345-11.345 11.345s-11.345-5.089-11.345-11.345v-80.862c3.952.841 8.017 1.286 12.153 1.286h.22c3.524-.013 6.968-.36 10.317-.979zm-10.392-99.627c-.048.001-.095.001-.143.001-10.045-.001-19.498-3.895-26.631-10.975-7.167-7.114-11.134-16.594-11.172-26.693-.037-9.995 3.055-27.528 9.059-44.257 8.888 2.545 18.269 3.909 27.963 3.909 10.129 0 19.914-1.495 29.154-4.264 6.162 16.728 9.401 34.31 9.438 44.334.077 20.846-16.821 37.868-37.668 37.945zm127.375-53.418c-7.115 7.167-16.595 11.134-26.693 11.172h-.144c-10.044 0-19.498-3.895-26.63-10.975-7.12-7.068-17.382-21.733-24.974-37.879 16.81-9.492 30.665-23.623 39.814-40.647 16.346 7.488 31.256 17.741 38.429 24.862 7.168 7.114 11.135 16.594 11.172 26.693.037 10.098-3.86 19.607-10.974 26.774z"/></g></g></svg>