<svg id="Capa_1" enable-background="new 0 0 512 512" height="512" viewBox="0 0 512 512" width="512" xmlns="http://www.w3.org/2000/svg"><g><g><path d="m316.16 457.808c0 58.624-136.702 58.624-136.702 0l8.082-28.305c10.622-37.201 12.932-76.284 6.766-114.477l-4.465-27.663s-3.477-43.26 57.952-43.26 57.12 43.26 57.12 43.26l-4.182 25.587c-6.37 38.971-3.911 78.875 7.197 116.769z" fill="#faf1a9"/><path d="m298.789 327.323h-102.798c1.923 16.981 2.185 34.077.81 51.05 6.116-3.613 15.993-6.434 31.928-6.434 44.291 0 41.184 21.798 41.184 21.798s.006 27.157.783 39.59 7.326 46.294 7.326 46.294c0 12.844-18.635 20.1-39.699 21.775 37.025 2.972 77.837-11.556 77.837-43.588l-8.233-28.089c-9.745-33.247-12.83-68.042-9.138-102.396z" fill="#dfb5a7"/><path d="m443.777 272.664c0 76.714-391.937 76.714-391.937 0 0-95.806 87.738-173.473 195.968-173.473s195.969 77.667 195.969 173.473z" fill="#d789b9"/><g fill="#fff"><ellipse cx="307.287" cy="174.216" rx="17.985" ry="27.911" transform="matrix(.308 -.951 .951 .308 46.799 412.801)"/><ellipse cx="348.935" cy="251.937" rx="25.523" ry="39.611" transform="matrix(.19 -.982 .982 .19 35.36 546.723)"/><ellipse cx="160.473" cy="229.54" rx="37.166" ry="23.948" transform="matrix(.999 -.04 .04 .999 -9.117 6.651)"/></g><path d="m247.809 99.191c-8.048 0-15.98.439-23.773 1.273 73.699 9 130.459 64.97 130.459 132.683 0 55.829-268.797 59.04-299.749 9.64-1.904 9.707-2.905 19.688-2.905 29.877 0 76.714 391.936 76.714 391.936 0 0-95.806-87.737-173.473-195.968-173.473z" fill="#c668b9"/><path d="m387.826 259.454c2.652-13.719-12.307-28.164-33.49-32.459.104 2.039.159 4.09.159 6.152 0 12.987-14.55 23.125-37.263 30.417 6.153 6.258 15.654 11.266 26.859 13.432 21.48 4.152 41.06-3.702 43.735-17.542z" fill="#e1bdfc"/><path d="m47.625 12.389 8.398 23.614c.36 1.011 1.071 1.812 1.97 2.217l20.98 9.453c2.964 1.335 2.964 6.058 0 7.393l-20.98 9.453c-.898.405-1.61 1.206-1.97 2.217l-8.398 23.614c-1.186 3.336-5.382 3.336-6.569 0l-8.398-23.614c-.36-1.011-1.071-1.812-1.97-2.217l-20.98-9.453c-2.964-1.335-2.964-6.058 0-7.393l20.98-9.453c.898-.405 1.61-1.206 1.97-2.217l8.398-23.614c1.187-3.337 5.383-3.337 6.569 0z" fill="#e8c2d8"/><path d="m479.612 85.753 6.23 17.517c.267.75.795 1.344 1.461 1.645l15.563 7.012c2.199.991 2.199 4.494 0 5.484l-15.563 7.012c-.666.3-1.194.895-1.461 1.645l-6.23 17.517c-.88 2.475-3.992 2.475-4.873 0l-6.23-17.517c-.267-.75-.795-1.344-1.461-1.645l-15.563-7.012c-2.199-.991-2.199-4.494 0-5.484l15.563-7.012c.666-.3 1.194-.895 1.461-1.645l6.23-17.517c.881-2.475 3.993-2.475 4.873 0z" fill="#e8c2d8"/><ellipse cx="389.154" cy="18.338" fill="#d789b9" rx="18.338" ry="18.338" transform="matrix(.23 -.973 .973 .23 281.897 392.868)"/><circle cx="145.7" cy="53.237" fill="#d789b9" r="7.91"/></g><g><path d="m393.156 142.345c-38.884-34.421-90.503-53.378-145.346-53.378s-106.462 18.957-145.347 53.378c-39.237 34.733-60.845 81.014-60.845 130.319 0 23.269 23.175 41.115 68.882 53.043 21.637 5.647 47.665 9.783 76.193 12.208 2.228 29.8-.798 60.113-8.982 88.78l-8.082 28.305c-.262.914-.393 1.858-.393 2.807 0 17.214 9.414 32.077 26.509 41.851 13.917 7.957 32.408 12.34 52.066 12.34s38.149-4.383 52.066-12.34c17.095-9.775 26.509-24.638 26.509-41.851 0-.973-.139-1.942-.412-2.875l-8.234-28.089c-8.406-28.678-11.628-58.993-9.588-88.864 28.83-2.415 55.137-6.574 76.969-12.272 45.707-11.928 68.882-29.775 68.882-53.043-.002-49.305-21.611-95.586-60.847-130.319zm-95.041 290.25 7.786 26.558c-1.159 21.277-29.797 32.4-58.092 32.4-28.311 0-56.964-11.134-58.092-32.434l7.655-26.808c8.572-30.027 11.906-61.725 9.913-92.969 13.16.713 26.72 1.083 40.525 1.083 13.542 0 26.85-.355 39.773-1.042-1.82 31.365 1.713 63.122 10.532 93.212zm-50.306-112.619c-114.73 0-185.745-24.558-185.745-47.312 0-90.017 83.325-163.25 185.745-163.25s185.744 73.233 185.744 163.25c0 22.754-71.015 47.312-185.744 47.312z" fill="#3c122c"/><path d="m223.259 150.115c-5.29 0-9.77-4.076-10.183-9.439-.433-5.63 3.78-10.545 9.409-10.979 4.345-.334 8.78-.504 13.184-.505h.002c5.646 0 10.223 4.576 10.224 10.222s-4.575 10.225-10.222 10.226c-3.883.001-7.793.151-11.618.445-.267.02-.533.03-.796.03z" fill="#fff"/><path d="m140.651 181.225c-3.128 0-6.215-1.431-8.221-4.136-3.363-4.536-2.411-10.939 2.125-14.301 15.332-11.367 32.147-20.011 49.976-25.693 5.375-1.712 11.131 1.257 12.846 6.637 1.714 5.379-1.257 11.13-6.637 12.846-15.68 4.997-30.486 12.613-44.008 22.636-1.831 1.356-3.965 2.011-6.081 2.011z" fill="#fff"/><g fill="#3c122c"><path d="m314.253 199.507c-4.686 0-9.591-.788-14.403-2.348-8.199-2.658-15.305-7.292-20.008-13.051-5.255-6.433-7.055-13.865-4.94-20.391 2.116-6.526 7.933-11.488 15.964-13.614 7.188-1.901 15.662-1.488 23.861 1.17 8.199 2.659 15.305 7.293 20.009 13.052 5.254 6.433 7.054 13.865 4.939 20.391-2.116 6.526-7.934 11.488-15.964 13.614-2.97.787-6.16 1.177-9.458 1.177zm-13.955-38.306c-2.237 0-4.367.252-6.293.762-2.303.61-6.332 2.141-7.432 5.537-1.102 3.399 1.262 7.002 2.77 8.847 3.184 3.898 8.393 7.229 14.291 9.141 5.898 1.914 12.072 2.269 16.936.982 2.303-.61 6.332-2.142 7.433-5.539 1.102-3.397-1.263-7-2.77-8.846-3.184-3.898-8.393-7.23-14.291-9.141-3.564-1.156-7.229-1.743-10.644-1.743z"/><path d="m355.506 284.243c-4.118 0-8.346-.405-12.578-1.224-11.531-2.227-21.887-7.286-29.159-14.244-7.989-7.644-11.452-16.706-9.748-25.518 1.702-8.811 8.292-15.931 18.554-20.047 9.341-3.748 20.836-4.585 32.367-2.354 25.185 4.867 42.275 22.333 38.906 39.764-1.702 8.811-8.292 15.931-18.554 20.047-5.912 2.37-12.688 3.576-19.788 3.576zm-13.182-52.352c-5.515 0-10.71.911-15.181 2.704-3.625 1.455-9.884 4.815-11.077 10.99-1.193 6.174 3.363 11.625 6.185 14.325 5.589 5.348 13.76 9.277 23.005 11.064 9.246 1.786 18.291 1.186 25.47-1.695 3.625-1.454 9.883-4.814 11.077-10.988 1.994-10.319-11.373-21.947-29.19-25.39-3.486-.675-6.947-1.01-10.289-1.01zm45.502 27.563h.01z"/><path d="m159.082 259.651c-10.134 0-19.743-2.398-27.297-6.846-9.056-5.331-14.231-12.974-14.576-21.521-.344-8.546 4.199-16.581 12.796-22.623 7.785-5.472 18.175-8.732 29.257-9.178 11.088-.44 21.702 1.967 29.9 6.793 9.055 5.332 14.231 12.974 14.576 21.521.344 8.546-4.199 16.581-12.796 22.623-7.785 5.472-18.175 8.732-29.257 9.178-.87.035-1.74.053-2.603.053zm2.724-47.95c-.682 0-1.366.013-2.052.041-8.628.348-16.901 2.883-22.695 6.956-2.935 2.064-7.824 6.378-7.593 12.093.231 5.716 5.45 9.623 8.541 11.443 6.103 3.592 14.541 5.459 23.183 5.107 8.628-.348 16.901-2.883 22.695-6.956 2.935-2.064 7.824-6.378 7.593-12.093v-.001c-.231-5.716-5.45-9.622-8.541-11.442-5.618-3.309-13.225-5.148-21.131-5.148z"/><path d="m242.5 265.632c-3.388 0-6.134-2.747-6.134-6.134v-11.584c0-3.388 2.747-6.134 6.134-6.134s6.134 2.747 6.134 6.134v11.584c0 3.387-2.747 6.134-6.134 6.134z"/><path d="m284.861 297.611c-3.388 0-6.134-2.747-6.134-6.134v-11.585c0-3.388 2.747-6.134 6.134-6.134s6.134 2.747 6.134 6.134v11.585c0 3.387-2.746 6.134-6.134 6.134z"/><path d="m372.076 205.827c-3.388 0-6.134-2.747-6.134-6.134v-11.583c0-3.388 2.747-6.134 6.134-6.134s6.134 2.747 6.134 6.134v11.583c.001 3.387-2.746 6.134-6.134 6.134z"/></g></g></g></svg>