<svg id="Capa_1" enable-background="new 0 0 512 512" height="512" viewBox="0 0 512 512" width="512" xmlns="http://www.w3.org/2000/svg"><g><g><path d="m409.479 501.858h-73.659c0-22.397 16.489-40.554 36.829-40.554 20.341 0 36.83 18.157 36.83 40.554z" fill="#c49a8b"/><path d="m429.042 152.23c-19.753 0-35.765 16.012-35.765 35.765v3.194h-43.568v-25.562c0-45.862-37.179-83.041-83.041-83.041-45.863 0-83.041 37.179-83.041 83.041v112.105h-46.39c-4.33 0-7.84-3.509-7.84-7.839v-30.487c0-19.563-15.86-35.423-35.423-35.423-19.564 0-35.423 15.86-35.423 35.423v58.942c0 27.742 22.489 50.232 50.231 50.232h74.845v153.279h166.083v-239.14h43.568 21.379c27.698 0 50.151-22.453 50.151-50.151v-21.379-3.194c-.001-19.752-16.014-35.765-35.766-35.765z" fill="#a1e8c3"/><g fill="#85adc2"><path d="m185.189 277.733h-29.106v16.797c0 14.299-11.591 25.89-25.89 25.89h-47.292c-8.052 0-15.548-2.362-21.851-6.418 6.581 20.074 25.456 34.577 47.73 34.577h76.409z"/><path d="m429.042 152.23c-4.591 0-8.974.874-13.007 2.45 9.854 4.403 16.725 14.283 16.725 25.775v19.393c0 21.858-17.72 39.577-39.578 39.577h-42.536v23.294h64.009c27.698 0 50.151-22.453 50.151-50.151v-24.572c.001-19.753-16.012-35.766-35.764-35.766z"/><path d="m266.667 82.586c-17.981 0-34.612 5.734-48.206 15.446 8.004-3.834 16.967-5.983 26.434-5.983 33.838 0 61.27 27.431 61.27 61.269v183.492c0 37.033-30.021 67.054-67.055 67.054h-55.485v97.993h166.083v-336.23c0-45.862-37.179-83.041-83.041-83.041z"/></g><path d="m296.426 501.858h-70.506c0-21.439 15.783-38.818 35.253-38.818s35.253 17.379 35.253 38.818z" fill="#c49a8b"/><path d="m248.765 501.858h-105.173c0-31.98 23.544-57.904 52.587-57.904 29.042 0 52.586 25.924 52.586 57.904z" fill="#c49a8b"/><path d="m58.428 46.792 8.331 23.424c.357 1.003 1.063 1.798 1.954 2.199l20.812 9.376c2.94 1.325 2.94 6.009 0 7.334l-20.812 9.377c-.891.401-1.597 1.196-1.954 2.199l-8.331 23.424c-1.177 3.309-5.339 3.309-6.516 0l-8.331-23.424c-.357-1.003-1.063-1.798-1.954-2.199l-20.812-9.377c-2.94-1.325-2.94-6.009 0-7.334l20.812-9.376c.891-.402 1.597-1.196 1.954-2.199l8.331-23.424c1.176-3.309 5.339-3.309 6.516 0z" fill="#ccf3e2"/><path d="m433.741 1.841 6.179 17.376c.265.744.788 1.333 1.449 1.631l15.438 6.955c2.181.983 2.181 4.458 0 5.44l-15.438 6.955c-.661.298-1.185.887-1.449 1.631l-6.179 17.376c-.873 2.455-3.96 2.455-4.834 0l-6.179-17.376c-.265-.744-.788-1.333-1.449-1.631l-15.438-6.955c-2.181-.983-2.181-4.458 0-5.44l15.438-6.955c.661-.298 1.185-.887 1.449-1.631l6.179-17.376c.874-2.455 3.961-2.455 4.834 0z" fill="#ccf3e2"/><ellipse cx="422.499" cy="369.502" fill="#a1e8c3" rx="18.19" ry="18.19" transform="matrix(.23 -.973 .973 .23 -34.189 695.804)"/><circle cx="458.338" cy="333.295" fill="#a1e8c3" r="7.847"/></g><g><path d="m218.732 218.613c-5.599 0-10.139-4.538-10.141-10.137-.001-2.33-.016-4.663-.031-6.996-.064-10.012-.13-20.365.911-30.77.558-5.573 5.54-9.644 11.101-9.081 5.573.558 9.639 5.527 9.081 11.101-.934 9.332-.874 18.701-.811 28.62.015 2.374.03 4.746.031 7.118.002 5.601-4.536 10.143-10.138 10.145 0 0-.001 0-.003 0z" fill="#fff"/><path d="m231.077 150.194c-2.307 0-4.624-.782-6.527-2.384-4.284-3.607-4.833-10.005-1.226-14.289 1.18-1.401 2.449-2.754 3.772-4.02 4.046-3.872 10.467-3.731 14.339.317 3.872 4.047 3.73 10.466-.317 14.339-.799.765-1.565 1.581-2.278 2.427-2.006 2.383-4.875 3.61-7.763 3.61z" fill="#fff"/><g fill="#3c122c"><path d="m286.63 374.712c-3.36 0-6.085-2.724-6.085-6.085v-10.941c0-3.36 2.725-6.085 6.085-6.085s6.085 2.725 6.085 6.085v10.941c-.001 3.36-2.725 6.085-6.085 6.085z"/><path d="m286.63 300.406c-3.36 0-6.085-2.724-6.085-6.085v-10.941c0-3.36 2.725-6.085 6.085-6.085s6.085 2.725 6.085 6.085v10.941c-.001 3.36-2.725 6.085-6.085 6.085z"/><path d="m311.485 337.911c-3.36 0-6.085-2.724-6.085-6.085v-10.942c0-3.36 2.725-6.085 6.085-6.085s6.085 2.725 6.085 6.085v10.942c0 3.361-2.725 6.085-6.085 6.085z"/><path d="m305.637 218.805c-3.36 0-6.085-2.725-6.085-6.085v-10.942c0-3.36 2.725-6.085 6.085-6.085s6.085 2.725 6.085 6.085v10.942c0 3.36-2.725 6.085-6.085 6.085z"/><path d="m423.069 233.506c-3.36 0-6.085-2.725-6.085-6.085v-10.942c0-3.36 2.725-6.085 6.085-6.085s6.085 2.725 6.085 6.085v10.942c0 3.36-2.725 6.085-6.085 6.085z"/><path d="m94.205 292.988c-3.36 0-6.085-2.725-6.085-6.085v-10.941c0-3.36 2.724-6.085 6.085-6.085 3.36 0 6.085 2.725 6.085 6.085v10.941c0 3.36-2.725 6.085-6.085 6.085z"/><path d="m132.547 327.757c-3.36 0-6.085-2.725-6.085-6.085v-10.941c0-3.36 2.724-6.085 6.085-6.085s6.085 2.724 6.085 6.085v10.941c-.001 3.36-2.725 6.085-6.085 6.085z"/><path d="m490.401 154.585c-3.97-3.949-10.391-3.933-14.343.038l-8.46 8.504c-4.883-7.545-11.912-13.572-20.223-17.207l5.067-11.65c2.234-5.136-.119-11.111-5.255-13.344-5.135-2.236-11.11.118-13.344 5.255l-6.94 15.958c-21.988 1.014-39.988 17.57-43.242 38.909h-23.811v-15.42c0-17.965-5.116-34.757-13.96-49.002l16.859-15.491c4.125-3.789 4.396-10.205.606-14.329-3.789-4.124-10.206-4.395-14.329-.606l-15.68 14.408c-5.261-5.393-11.167-10.152-17.594-14.151l10.595-21.649c2.462-5.03.379-11.105-4.652-13.567-5.032-2.462-11.105-.378-13.567 4.652l-10.664 21.79c-6.451-2.266-13.223-3.839-20.23-4.634v-24.656c0-5.601-4.541-10.142-10.141-10.142-5.601 0-10.141 4.541-10.141 10.142v24.557c-7.207.75-14.17 2.328-20.797 4.632l-10.616-21.69c-2.463-5.032-8.538-7.111-13.567-4.652-5.031 2.463-7.113 8.537-4.651 13.567l10.518 21.49c-6.462 3.992-12.401 8.751-17.691 14.15l-15.508-14.248c-4.124-3.791-10.54-3.52-14.329.606-3.79 4.124-3.519 10.54.606 14.329l16.648 15.297c-8.918 14.287-14.081 31.149-14.081 49.196v101.964h-33.947v-28.185c0-23.827-18.387-43.429-41.715-45.391l-7.561-17.386c-2.234-5.136-8.208-7.489-13.345-5.255-5.136 2.233-7.489 8.208-5.256 13.344l5.39 12.394c-8.364 3.359-15.508 9.123-20.569 16.44l-8.437-8.481c-3.95-3.969-10.371-3.986-14.342-.038-3.971 3.951-3.987 10.372-.037 14.343l15.015 15.093c-.176 1.622-.272 3.268-.272 4.936v58.941c0 33.29 27.083 60.373 60.373 60.373h64.703v79.72c-23.4 9.889-40.033 34.578-40.033 63.418 0 5.601 4.54 10.142 10.141 10.142h265.887c5.601 0 10.142-4.541 10.142-10.142 0-27.953-21.071-50.695-46.972-50.695-4.437 0-8.729.674-12.8 1.924v-180.225h54.806c33.245 0 60.292-27.047 60.292-60.293v-24.572c0-1.131-.056-2.249-.136-3.359l15.627-15.708c3.95-3.972 3.933-10.393-.037-14.344zm-381.621 183.853c-22.106 0-40.09-17.984-40.09-40.091v-58.941c0-13.94 11.341-25.282 25.282-25.282 13.94 0 25.282 11.342 25.282 25.282v30.487c0 9.915 8.066 17.981 17.981 17.981h36.249v50.564zm107.984 153.279h-62.067c4.143-21.482 21.169-37.621 41.482-37.621 12.262 0 23.318 5.888 31.072 15.277-5.14 6.236-8.829 13.889-10.487 22.344zm20.919 0c3.595-10.822 12.769-18.536 23.49-18.536 10.722 0 19.896 7.714 23.491 18.536zm101.883 0h-33.984c-1.909-9.734-6.511-18.403-12.918-25.072v-66.237c0-3.36-2.725-6.085-6.085-6.085s-6.085 2.724-6.085 6.085v57.158c-5.867-2.989-12.415-4.669-19.322-4.669-6.38 0-12.453 1.434-17.966 4.007-1.89-2.325-3.921-4.513-6.083-6.539v-97.225c0-3.36-2.724-6.085-6.085-6.085-3.36 0-6.085 2.724-6.085 6.085v88.275c-8.623-4.854-18.407-7.603-28.776-7.603-.809 0-1.61.033-2.412.066v-268.251c0-40.198 32.703-72.9 72.9-72.9 40.198 0 72.9 32.702 72.9 72.9v326.09zm33.083-20.271c11.596 0 21.49 8.473 25.164 20.271h-37.963v-16.508c3.802-2.386 8.158-3.763 12.799-3.763zm82.016-258.878c0 22.062-17.948 40.01-40.009 40.01h-54.806v-51.248h33.427c5.601 0 10.141-4.541 10.141-10.141v-3.193c0-14.129 11.495-25.624 25.624-25.624s25.623 11.495 25.623 25.624z"/></g></g></g></svg>